<?xml version="1.0" encoding="UTF-8" standalone="no"?>
<!-- Created with Inkscape (http://www.inkscape.org/) -->

<svg
   version="1.1"
   id="svg1"
   width="387.95236"
   height="86.866119"
   viewBox="0 0 387.95236 86.866118"
   xml:space="preserve"
   xmlns:xlink="http://www.w3.org/1999/xlink"
   xmlns="http://www.w3.org/2000/svg"
   xmlns:svg="http://www.w3.org/2000/svg"><defs
     id="defs1"><linearGradient
       id="linearGradient24"><stop
         style="stop-color:#06509d;stop-opacity:1;"
         offset="0"
         id="stop25" /><stop
         style="stop-color:#08a4cb;stop-opacity:1;"
         offset="1"
         id="stop26" /></linearGradient><clipPath
       clipPathUnits="userSpaceOnUse"
       id="clipPath8"><use
         x="0"
         y="0"
         xlink:href="#g7"
         id="use8" /></clipPath><linearGradient
       xlink:href="#linearGradient24"
       id="linearGradient26"
       x1="18.914261"
       y1="84.424011"
       x2="79.927147"
       y2="58.525578"
       gradientUnits="userSpaceOnUse" /><linearGradient
       xlink:href="#linearGradient24"
       id="linearGradient1"
       gradientUnits="userSpaceOnUse"
       x1="18.914261"
       y1="84.424011"
       x2="79.927147"
       y2="58.525578" /><linearGradient
       xlink:href="#linearGradient24"
       id="linearGradient2"
       gradientUnits="userSpaceOnUse"
       x1="18.914261"
       y1="84.424011"
       x2="79.927147"
       y2="58.525578" /><linearGradient
       xlink:href="#linearGradient24"
       id="linearGradient3"
       gradientUnits="userSpaceOnUse"
       x1="18.914261"
       y1="84.424011"
       x2="79.927147"
       y2="58.525578" /><linearGradient
       xlink:href="#linearGradient24"
       id="linearGradient4"
       gradientUnits="userSpaceOnUse"
       x1="18.914261"
       y1="84.424011"
       x2="79.927147"
       y2="58.525578" /></defs><g
     id="g1"
     transform="translate(-16.27972,-28.752492)"><g
       id="g8"
       clip-path="url(#clipPath8)"
       style="fill:url(#linearGradient26);fill-opacity:1;fill-rule:nonzero"><g
         id="g7"
         style="fill:url(#linearGradient4);fill-opacity:1;fill-rule:nonzero"><ellipse
           style="fill:url(#linearGradient1);fill-opacity:1;fill-rule:nonzero;stroke-width:0.887865"
           id="path1"
           cx="51.867237"
           cy="43.880436"
           rx="13.530585"
           ry="15.127944" /><ellipse
           style="fill:url(#linearGradient2);fill-opacity:1;fill-rule:nonzero;stroke-width:0.887865"
           id="path1-8"
           cx="52.221909"
           cy="99.069153"
           rx="13.530585"
           ry="15.127944" /><path
           style="opacity:1;fill:url(#linearGradient3);fill-opacity:1;fill-rule:nonzero"
           d="m 50.050632,65.241218 c 1.346794,0 2.944155,-0.06264 5.199282,-0.955302 2.255126,-0.89266 5.167901,-2.615269 8.033782,-5.841358 2.865881,-3.226089 5.684697,-7.955435 7.877168,-11.08753 2.192471,-3.132095 3.75848,-4.666783 5.073964,-5.293196 1.315484,-0.626413 2.38037,-0.344532 3.382645,1e-6 1.002274,0.344532 1.941879,0.751695 2.489995,1.910583 0.548115,1.158889 0.704716,3.069419 -0.125303,5.418507 -0.830019,2.349088 -2.646589,5.136583 -5.167945,8.597572 -2.521357,3.460989 -5.747334,7.595252 -7.422998,10.00696 -1.675664,2.411708 -1.800945,3.100752 -1.72264,3.836798 0.07831,0.736047 0.360187,1.519051 2.490041,4.494578 2.129853,2.975528 6.107515,8.143356 8.550546,11.275446 2.443031,3.132091 3.351316,4.228297 3.664521,5.747375 0.313205,1.519078 0.03132,3.460928 -0.610762,4.823391 -0.642087,1.362462 -1.644332,2.145467 -3.053787,2.239427 -1.409454,0.094 -3.226023,-0.501131 -4.917362,-2.004553 -1.691338,-1.503423 -3.257347,-3.915076 -4.901706,-6.436427 -1.644359,-2.52135 -3.366968,-5.152244 -4.995665,-7.266413 -1.628696,-2.11417 -3.163385,-3.711499 -5.214923,-4.948679 -2.051537,-1.23718 -4.619791,-2.114144 -6.514712,-2.474332 -1.89492,-0.360188 -3.116407,-0.203587 -4.33793,0.0783 -1.221523,0.281891 -2.44301,0.689054 -4.306622,1.816621 -1.863613,1.127567 -4.369226,2.975457 -6.311129,4.087349 -1.941903,1.111892 -3.319991,1.487734 -5.183602,1.644337 -1.863611,0.156603 -4.212623,0.09396 -6.749635,-0.830019 -2.537012,-0.923981 -5.261866,-2.70923 -6.859232,-4.604159 -1.597365,-1.894928 -2.067168,-3.899419 -2.129805,-6.452095 -0.06264,-2.552675 0.281883,-5.653372 1.331147,-8.174715 1.049264,-2.521344 2.803194,-4.463195 4.65114,-5.841318 1.847947,-1.378123 3.789797,-2.192447 5.763027,-2.349046 1.973231,-0.156599 3.977721,0.344523 6.13888,1.284161 2.161158,0.939638 4.47885,2.317725 6.561702,3.586229 2.082851,1.268504 3.930741,2.42735 5.402829,3.038106 1.472089,0.610757 2.568295,0.673397 3.915089,0.673397 z"
           id="path4" /><ellipse
           style="opacity:1;fill:#0892be;fill-opacity:1;fill-rule:nonzero;stroke-width:4.78809;stroke-dasharray:none"
           id="path83"
           cx="86.821251"
           cy="70.471794"
           rx="12.633318"
           ry="11.991702" /></g></g><text
       xml:space="preserve"
       style="font-style:normal;font-variant:normal;font-weight:normal;font-stretch:normal;font-size:55.3099px;font-family:'Microsoft Sans Serif';-inkscape-font-specification:'Microsoft Sans Serif, Normal';font-variant-ligatures:normal;font-variant-caps:normal;font-variant-numeric:normal;font-variant-east-asian:normal;text-align:start;writing-mode:lr-tb;direction:ltr;text-anchor:start;opacity:1;fill:#000000;fill-opacity:1;stroke-width:4.60935;stroke-dasharray:none"
       x="116.4273"
       y="85.469688"
       id="text4"
       transform="scale(0.93965471,1.0642207)"><tspan
         id="tspan4"
         x="116.4273"
         y="85.469688"
         style="font-style:normal;font-variant:normal;font-weight:normal;font-stretch:normal;font-size:55.3099px;font-family:'Microsoft Sans Serif';-inkscape-font-specification:'Microsoft Sans Serif, Normal';font-variant-ligatures:normal;font-variant-caps:normal;font-variant-numeric:normal;font-variant-east-asian:normal;stroke-width:4.60935;stroke-dasharray:none">Ucompensar</tspan></text><text
       xml:space="preserve"
       style="font-size:14.0785px;text-align:start;writing-mode:lr-tb;direction:ltr;text-anchor:start;fill:#000000;fill-opacity:1;stroke-width:1.17325;stroke-dasharray:none"
       x="265.75589"
       y="107.43964"
       id="text4-1"
       transform="scale(0.93110217,1.073996)"><tspan
         id="tspan4-7"
         x="265.75589"
         y="107.43964"
         style="stroke-width:1.17325;stroke-dasharray:none">Fundacion Universitaria</tspan></text></g></svg>
